<svg xmlns="http://www.w3.org/2000/svg" width="159" height="28" viewBox="0 0 159 28"><defs><linearGradient id="a" x1=".035%" x2="100.035%" y1="50.015%" y2="50.015%"><stop offset="0%" stop-color="#329DD8"/><stop offset="100%" stop-color="#42E3D0"/></linearGradient></defs><g fill="none"><path fill="#FFF" d="M45.062 25.258l2.877-6.348-5.179-10.659h3.692l3.249 7.136 3-7.136h3.516l-7.658 17.007h-3.497zm10.72-8.127c0-.55.098-1.027.284-1.452.186-.425.452-.788.78-1.107.327-.31.716-.558 1.15-.744.434-.186.912-.31 1.425-.398l3.002-.443c.345-.053.584-.15.717-.31a.84.84 0 0 0 .194-.557c0-.434-.168-.806-.504-1.116-.337-.31-.859-.469-1.55-.469-.725 0-1.283.195-1.673.593-.39.399-.61.859-.655 1.39l-2.921-.62c.053-.478.194-.956.442-1.434a4.411 4.411 0 0 1 1.018-1.292c.434-.381.957-.69 1.585-.93.629-.239 1.355-.363 2.187-.363.956 0 1.78.124 2.452.38.673.258 1.23.594 1.647 1.019.416.425.726.912.92 1.478.186.558.284 1.151.284 1.762v6.002c0 .328.017.682.053 1.054.035.372.062.664.097.876h-3.026a6.259 6.259 0 0 1-.089-.681 8.52 8.52 0 0 1-.035-.78c-.31.479-.762.904-1.355 1.267-.584.363-1.337.549-2.24.549a4.71 4.71 0 0 1-1.744-.31 4.15 4.15 0 0 1-1.328-.815 3.49 3.49 0 0 1-.832-1.168 3.537 3.537 0 0 1-.283-1.381zm4.879 1.212c.345 0 .681-.044 1-.132a2.15 2.15 0 0 0 .859-.47c.248-.22.443-.513.593-.867.15-.354.221-.806.221-1.355v-.549l-2.753.425a2.142 2.142 0 0 0-1.08.46c-.292.24-.434.603-.434 1.08 0 .364.133.691.399.983.274.284.672.425 1.195.425zm7.897 2.107v-17.945h3.249v7.092c.283-.434.743-.815 1.372-1.151.637-.337 1.408-.505 2.32-.505.894 0 1.682.16 2.38.487.691.319 1.285.77 1.772 1.337.486.566.858 1.24 1.106 2.018.248.78.372 1.62.372 2.532 0 .93-.133 1.78-.407 2.568a6.112 6.112 0 0 1-1.169 2.045 5.266 5.266 0 0 1-1.824 1.337 5.687 5.687 0 0 1-2.355.486c-.84 0-1.575-.168-2.195-.495-.62-.328-1.098-.762-1.425-1.293v1.487h-3.196zm9.269-6.126c0-1.124-.292-1.983-.877-2.567-.584-.585-1.301-.877-2.142-.877-.416 0-.806.071-1.178.222-.371.15-.69.371-.965.655a3.043 3.043 0 0 0-.655 1.08c-.168.434-.248.93-.248 1.487 0 .55.08 1.036.248 1.46.169.435.381.798.655 1.09.275.3.594.522.965.682.372.159.762.239 1.178.239a2.9 2.9 0 0 0 2.142-.895c.585-.593.877-1.452.877-2.576zm3.833 2.807c0-.55.098-1.027.283-1.452.186-.425.452-.788.78-1.107.327-.31.717-.558 1.15-.744.434-.186.912-.31 1.426-.398l3-.443c.346-.053.585-.15.718-.31a.84.84 0 0 0 .195-.557c0-.434-.168-.806-.505-1.116-.336-.31-.859-.469-1.55-.469-.725 0-1.283.195-1.672.593-.39.399-.611.859-.655 1.39l-2.922-.62c.053-.478.195-.956.443-1.434a4.411 4.411 0 0 1 1.018-1.292c.434-.381.956-.69 1.584-.93.629-.239 1.355-.363 2.178-.363.956 0 1.78.124 2.453.38.681.258 1.23.594 1.646 1.019.416.425.726.912.92 1.478.187.558.284 1.151.284 1.762v6.002c0 .328.018.682.053 1.054.036.372.062.664.098.876h-3.028a6.259 6.259 0 0 1-.089-.681 8.52 8.52 0 0 1-.035-.78c-.31.479-.761.904-1.354 1.267-.585.363-1.337.549-2.24.549a4.71 4.71 0 0 1-1.744-.31 4.248 4.248 0 0 1-1.328-.815 3.49 3.49 0 0 1-.832-1.168 3.528 3.528 0 0 1-.275-1.381zm4.878 1.212c.345 0 .682-.044 1-.132a2.15 2.15 0 0 0 .86-.47c.247-.22.442-.513.592-.867.15-.354.222-.806.222-1.355v-.549l-2.754.425a2.142 2.142 0 0 0-1.08.46c-.292.24-.433.603-.433 1.08 0 .364.132.691.398.983.274.284.664.425 1.195.425zm11.19 2.107h-3.293v-12.199h3.196v1.514a3.461 3.461 0 0 1 1.55-1.39 4.669 4.669 0 0 1 1.973-.443c.762 0 1.417.124 1.975.381a3.94 3.94 0 0 1 1.371 1.027c.363.434.628.938.806 1.54.177.593.256 1.222.256 1.886v7.684h-3.293v-7.117c0-.69-.177-1.275-.531-1.736-.354-.46-.93-.69-1.727-.69-.726 0-1.292.248-1.682.735-.398.487-.593 1.089-.593 1.797v7.011h-.009zm15.334-9.517c-.434 0-.832.071-1.204.222-.372.15-.7.372-.983.655a3.156 3.156 0 0 0-.673 1.08c-.168.434-.248.92-.248 1.46 0 .55.08 1.037.248 1.461.168.425.39.797.682 1.09.292.3.62.522.991.672.372.15.77.222 1.204.222.417 0 .78-.062 1.107-.186a2.646 2.646 0 0 0 1.39-1.16c.142-.248.248-.487.31-.717l2.904.965a5.427 5.427 0 0 1-.655 1.496c-.31.487-.7.93-1.178 1.31a5.95 5.95 0 0 1-1.682.939c-.637.239-1.372.363-2.178.363-.894 0-1.735-.16-2.514-.487a5.984 5.984 0 0 1-2.045-1.355 6.273 6.273 0 0 1-1.364-2.045 6.672 6.672 0 0 1-.495-2.594c0-.938.16-1.806.487-2.603a6.162 6.162 0 0 1 1.336-2.045 6.143 6.143 0 0 1 2.01-1.336 6.457 6.457 0 0 1 2.488-.487c.823 0 1.567.124 2.222.363a6.012 6.012 0 0 1 1.7.93c.478.38.867.814 1.168 1.31.301.495.514 1 .647 1.513l-2.949.992c-.15-.514-.433-.983-.858-1.417-.443-.398-1.063-.61-1.868-.61zm6.825 9.517v-12.199h3.294v12.2h-3.294zm17.113-2.204c0 .416.01.823.027 1.23.018.408.044.735.07.983h-3.151a4.121 4.121 0 0 1-.089-.593 8.235 8.235 0 0 1-.035-.814c-.283.478-.717.885-1.301 1.213-.585.327-1.293.495-2.116.495-.877 0-1.673-.16-2.408-.487a5.468 5.468 0 0 1-1.868-1.336 6.42 6.42 0 0 1-1.23-2.037c-.302-.788-.443-1.637-.443-2.567 0-.894.141-1.726.433-2.505.293-.78.69-1.452 1.204-2.019a5.69 5.69 0 0 1 1.85-1.354 5.624 5.624 0 0 1 2.364-.496 5.6 5.6 0 0 1 1.373.15c.39.098.726.222 1 .372s.505.31.682.487c.177.177.3.345.38.505v-6.968h3.25v15.741h.008zm-9.216-3.922c0 1.09.284 1.939.859 2.55.567.61 1.293.92 2.169.92.841 0 1.55-.31 2.134-.92.575-.611.867-1.47.867-2.576 0-1.09-.292-1.93-.867-2.515-.576-.584-1.293-.876-2.134-.876a2.9 2.9 0 0 0-2.142.894c-.585.593-.886 1.434-.886 2.523zm11.456 6.126v-12.199h3.293v12.2h-3.293zm-.39-16.183c0-.575.195-1.062.594-1.46a1.952 1.952 0 0 1 1.434-.594c.575 0 1.062.195 1.452.593.39.399.584.886.584 1.461 0 .549-.195 1.018-.584 1.417-.39.398-.868.593-1.452.593a1.938 1.938 0 0 1-1.434-.593c-.399-.408-.593-.877-.593-1.417zm5.038 16.183v-2.903l5.772-6.445h-5.622v-2.852h9.845v2.753l-5.95 6.57h6.047v2.876h-10.092zm11.438 0v-12.199h3.293v12.2h-3.293zm-.398-16.183c0-.575.194-1.062.593-1.46a1.952 1.952 0 0 1 1.434-.594c.575 0 1.062.195 1.452.593.39.399.584.886.584 1.461 0 .549-.195 1.018-.584 1.417-.39.398-.868.593-1.452.593a1.938 1.938 0 0 1-1.434-.593c-.39-.408-.593-.877-.593-1.417z"/><path fill="url(#a)" d="M16.644 5.144h5.692c2.85 0 5.232.672 7.145 2.027 2.177 1.54 3.257 3.683 3.257 6.41 0 3.921-1.859 6.586-5.568 7.994-1.47.54-3.17.814-5.082.814h-3.612l3.17 5.312c.425 0 1.761-.035 1.806 0 2.01-.088 3.975-.487 5.63-1.115 2.753-1.054 4.94-2.745 6.57-5.055 1.628-2.311 2.442-4.958 2.442-7.942 0-4.267-1.602-7.684-4.798-10.251-2.974-2.382-5.71-2.886-10.96-2.895"/><path fill="#42E3D0" d="M0 0h5.763c.089 0 .177.044.222.124l17.714 27.586h-6.374l-17.325-27.71zm25.514.549c-.008.035-2.797 4.028-8.383 11.97a.26.26 0 0 1-.372.061.27.27 0 0 1-.071-.07l-2.966-4.49c-.053-.088-.062-.203 0-.282l4.613-7.34a.278.278 0 0 1 .23-.124c4.639.142 6.958.24 6.95.275z"/></g></svg>